<?xml version="1.0" encoding="utf-8"?>
<!-- Generator: Adobe Illustrator 24.0.1, SVG Export Plug-In . SVG Version: 6.00 Build 0)  -->
<svg version="1.1" id="Layer_1" xmlns="http://www.w3.org/2000/svg" xmlns:xlink="http://www.w3.org/1999/xlink" x="0px" y="0px"
	 viewBox="0 0 2500 1000" style="enable-background:new 0 0 2500 1000;" xml:space="preserve">
<style type="text/css">
	.st0{fill:url(#SVGID_1_);stroke:#FFFFFF;stroke-width:3.9774;stroke-miterlimit:10;}
	.st1{fill:#C42126;stroke:#C42126;stroke-width:3.9774;stroke-miterlimit:10;}
	.st2{fill:#414749;stroke:#FFFFFF;stroke-width:3.9774;stroke-miterlimit:10;}
	.st3{fill:url(#SVGID_2_);stroke:#FFFFFF;stroke-width:3.9774;stroke-miterlimit:10;}
	.st4{fill:url(#SVGID_3_);stroke:#FFFFFF;stroke-width:3.9774;stroke-miterlimit:10;}
	.st5{fill:url(#SVGID_4_);stroke:#FFFFFF;stroke-width:3.9774;stroke-miterlimit:10;}
	.st6{fill:url(#SVGID_5_);stroke:#FFFFFF;stroke-width:3.9774;stroke-miterlimit:10;}
	.st7{fill:url(#SVGID_6_);stroke:#FFFFFF;stroke-width:3.9774;stroke-miterlimit:10;}
	.st8{fill:#3EA047;stroke:#3EA047;stroke-width:3.9774;stroke-miterlimit:10;}
	.st9{fill:#414749;}
	.st10{fill:#3EA047;stroke:#3EA047;stroke-width:5.3032;stroke-miterlimit:10;}
	.st11{fill:#FFFFFF;}
	.st12{fill:#231F20;}
	.st13{fill:#FFC40C;stroke:#FFC40C;stroke-width:3.9774;stroke-miterlimit:10;}
	.st14{opacity:0.75;}
</style>
<g>
	
		<image style="overflow:visible;opacity:0.4;" width="3232" height="2285" xlink:href="2425DEC3FCB36AA4.png"  transform="matrix(0.3182 0 0 0.3182 709.8465 118.7279)">
	</image>
	
		<linearGradient id="SVGID_1_" gradientUnits="userSpaceOnUse" x1="1756.5704" y1="507.6411" x2="1756.5704" y2="382.6185" gradientTransform="matrix(0 -1 -1 0 2113.1309 2113.1309)">
		<stop  offset="0" style="stop-color:#0D1322"/>
		<stop  offset="0.3012" style="stop-color:#1E242F"/>
		<stop  offset="0.7806" style="stop-color:#414749"/>
	</linearGradient>
	<polygon class="st0" points="1611.8,479.8 1605.5,479.8 1605.5,233.3 1730.5,233.3 	"/>
	<polygon class="st1" points="1610.8,244.4 1610.8,242.7 1711.3,242.7 1709.9,245.5 	"/>
	<polygon class="st2" points="1367.9,237.2 1367.9,370.5 1287.4,275.3 1287.4,274.7 1095.6,377 1040.9,528.8 960.4,427.3 
		960.4,426.7 713.9,541.4 713.9,721.8 995.7,721.8 910.3,591.4 1040.9,721.8 1040.9,721.8 1040.9,721.8 1216.9,721.8 1287.4,619.1 
		1367.9,717.6 1367.9,721.8 1614.5,721.8 1614.5,122.6 	"/>
	<linearGradient id="SVGID_2_" gradientUnits="userSpaceOnUse" x1="907.5124" y1="574.5724" x2="1040.8905" y2="574.5724">
		<stop  offset="0" style="stop-color:#0D1322"/>
		<stop  offset="0.3771" style="stop-color:#192433"/>
		<stop  offset="1" style="stop-color:#314955"/>
	</linearGradient>
	<polygon class="st3" points="1040.9,721.8 907.5,587.9 907.5,587.9 960.4,427.3 1040.9,530.1 	"/>
	<linearGradient id="SVGID_3_" gradientUnits="userSpaceOnUse" x1="1287.4385" y1="498.5535" x2="1371.3333" y2="498.5535">
		<stop  offset="0" style="stop-color:#0D1322"/>
		<stop  offset="0.3771" style="stop-color:#192433"/>
		<stop  offset="1" style="stop-color:#314955"/>
	</linearGradient>
	<polygon class="st4" points="1367.9,721.8 1287.4,619.1 1287.4,275.3 1371.3,374.6 	"/>
	<linearGradient id="SVGID_4_" gradientUnits="userSpaceOnUse" x1="854.7823" y1="721.8163" x2="854.7823" y2="426.7476">
		<stop  offset="0" style="stop-color:#0D1322"/>
		<stop  offset="1" style="stop-color:#414749"/>
	</linearGradient>
	<polygon class="st5" points="713.9,541.4 713.9,721.8 995.7,721.8 907.5,589.7 960.4,426.7 	"/>
	<linearGradient id="SVGID_5_" gradientUnits="userSpaceOnUse" x1="1164.1647" y1="721.8163" x2="1164.1647" y2="274.6578">
		<stop  offset="0" style="stop-color:#0D1322"/>
		<stop  offset="0.3012" style="stop-color:#1E242F"/>
		<stop  offset="0.7806" style="stop-color:#414749"/>
	</linearGradient>
	<polygon class="st6" points="1095.6,377 1040.9,721.8 1216.9,721.8 1287.4,274.7 	"/>
	<linearGradient id="SVGID_6_" gradientUnits="userSpaceOnUse" x1="1491.1829" y1="721.8163" x2="1491.1829" y2="122.5681">
		<stop  offset="0" style="stop-color:#0D1322"/>
		<stop  offset="0.1514" style="stop-color:#131927"/>
		<stop  offset="0.3537" style="stop-color:#242A33"/>
		<stop  offset="0.584" style="stop-color:#3F4648"/>
		<stop  offset="0.5969" style="stop-color:#414749"/>
		<stop  offset="0.6821" style="stop-color:#444B4D"/>
		<stop  offset="0.759" style="stop-color:#4F5658"/>
		<stop  offset="0.8326" style="stop-color:#61686A"/>
		<stop  offset="0.9043" style="stop-color:#7B8284"/>
		<stop  offset="0.9739" style="stop-color:#9BA2A5"/>
		<stop  offset="1" style="stop-color:#A9B0B4"/>
	</linearGradient>
	<polygon class="st7" points="1367.9,237.2 1367.9,721.8 1614.5,721.8 1614.5,122.6 	"/>
	<polygon class="st8" points="1104.4,384.2 1104.1,380.4 1279.4,287 1279.6,289 	"/>
	<polygon class="st1" points="1377.9,243.8 1376.6,242.1 1608.6,133.8 1608.6,135.8 	"/>
	<polygon class="st9" points="995.7,721.8 994,721.8 910.3,591.3 954.4,438.2 956.1,438.2 910.3,591.4 	"/>
	<polygon class="st10" points="1050.5,715.2 1048.8,715.2 1103.5,382.7 1105.2,382.7 	"/>
	<polygon class="st8" points="1210.9,716.1 1209.2,716.1 1279.7,286.9 1281.8,285.9 	"/>
	<polygon class="st8" points="1358.5,700.3 1362,704.7 1295.4,295.1 1293,291.9 	"/>
	<rect x="1375" y="243.6" class="st1" width="1.7" height="472.6"/>
	<rect x="1606.9" y="135.7" class="st1" width="1.7" height="580.4"/>
	<path class="st11" d="M768.1,768.6c1.7,4.4,1.7,9.6,0,14.2c-1.6,4-4.4,7.3-8.6,9.1c21.5,3.8,20.2,39.6-3.9,39.6c-8,0-24.7,0-32.6,0
		v-73.3c7,0,22.8,0,29.7,0C760.7,758.2,765.8,762.8,768.1,768.6z M724.7,791.5h28c7.2,0,11.8-4.1,13.9-9.3c1.6-4.1,1.6-8.8,0-12.9
		c-2.1-5.2-6.7-9.3-13.9-9.3h-28V791.5z M724.7,830h30.9c23.4,0,23.4-36.8,0-36.8h-30.9V830z"/>
	<path class="st12" d="M755.6,834.2h-35.3v-78.6h32.3c8.4,0,14.9,4.4,17.9,12.1l0,0c1.9,5,1.9,10.9,0,16c-1.2,3-2.9,5.5-5,7.4
		c8.6,4.2,12.4,13.9,11.7,22.7C776.4,824,769.4,834.2,755.6,834.2z M727.4,827.3h28.3c10.2,0,14.9-8.2,14.9-15.8
		c0-7.6-4.7-15.7-14.9-15.7h-28.3V827.3z M727.4,788.8h25.3c7.3,0,10.3-4.8,11.5-7.7c1.3-3.5,1.3-7.5,0-11
		c-1.1-2.8-4.1-7.6-11.5-7.6h-25.3V788.8z"/>
	<path class="st11" d="M835.7,806.9h-37.1l-10,24.6h-1.8l29.5-74.4h1.8l29.5,74.4h-1.8L835.7,806.9z M799.4,805.3h35.8l-17.9-46
		L799.4,805.3z"/>
	<path class="st12" d="M851.5,834.2H844L834,809.5h-33.5l-10,24.6H783l31.6-79.7h1.7l1-2.5l1,2.5h1.8L851.5,834.2z M803.2,802.7h28
		l-14-36.1L803.2,802.7z"/>
	<path class="st11" d="M874,831.9v-72h-25.4v-1.7H901v1.7h-25.4v72H874z"/>
	<polygon class="st12" points="878.2,834.5 871.4,834.5 871.4,762.5 846,762.5 846,755.5 903.6,755.5 903.6,762.5 878.2,762.5 	"/>
	<path class="st11" d="M1005.5,785.9c-1.7-3.9-4.1-7.3-6.9-10.3c-6.2-6.4-14.8-10.3-24.2-10.3c-9.4,0-18,3.9-24.2,10.3
		c-6.2,6.4-10.1,15.1-10.1,24.6c0,9.6,3.9,18.4,10.1,24.6c6.2,6.4,14.8,10.4,24.2,10.4c9.4,0,18-4,24.2-10.4
		c2.8-2.9,5.2-6.3,6.9-10.2h1.8c-1.8,4.3-4.4,8.2-7.5,11.4c-6.5,6.7-15.4,10.8-25.4,10.8c-10,0-18.9-4.1-25.4-10.8
		c-6.4-6.6-10.5-15.7-10.5-25.9c0-10.1,4.1-19.2,10.5-25.8c6.5-6.7,15.4-10.8,25.4-10.8c10,0,18.9,4.1,25.4,10.8
		c3.1,3.3,5.8,7.1,7.5,11.4H1005.5z"/>
	<path class="st12" d="M974.3,838.9c-10.2,0-19.7-4-26.8-11.4c-7.1-7.4-11-17-11-27.3c0-10.2,3.9-19.8,11-27.2
		c7.1-7.4,16.6-11.4,26.8-11.4c10.2,0,19.7,4,26.8,11.4c3.4,3.5,6.1,7.7,8,12.1l1.1,2.8h-6.1l-0.5-1.2c-1.5-3.5-3.7-6.8-6.5-9.7
		c-6-6.2-14.1-9.7-22.8-9.7c-8.7,0-16.8,3.4-22.8,9.7c-6.1,6.3-9.5,14.6-9.5,23.3c0,8.8,3.4,17,9.5,23.2c6.1,6.3,14.2,9.8,22.8,9.8
		c8.6,0,16.7-3.5,22.8-9.8c2.9-3,5.1-6.2,6.5-9.6l0.5-1.2h6.1l-1.1,2.8c-1.8,4.4-4.6,8.5-8,12.1C994,834.9,984.5,838.9,974.3,838.9z
		"/>
	<path class="st11" d="M1034.6,773.5c6.7-6.9,16.1-11.1,26.4-11.1c10.4,0,19.7,4.2,26.5,11.1c6.7,6.8,11,16.3,11,26.6
		c0,10.4-4.3,19.8-11,26.6c-6.8,6.9-16.1,11.1-26.5,11.1c-10.3,0-19.7-4.2-26.4-11.1c-6.7-6.8-11-16.3-11-26.6
		C1023.6,789.8,1027.9,780.3,1034.6,773.5z M1086.4,774.8c-6.5-6.6-15.5-10.7-25.4-10.7s-18.8,4.1-25.3,10.7
		c-6.4,6.5-10.5,15.4-10.5,25.4c0,10,4.1,18.9,10.5,25.4c6.5,6.6,15.4,10.7,25.3,10.7s18.9-4.1,25.4-10.7
		c6.4-6.5,10.4-15.4,10.4-25.4C1096.8,790.2,1092.8,781.3,1086.4,774.8z"/>
	<path class="st12" d="M1061.1,839.9c-10.5,0-20.6-4.3-27.9-11.7c-7.5-7.6-11.6-17.5-11.6-28c0-10.5,4.1-20.4,11.6-28
		c7.2-7.4,17.4-11.7,27.8-11.7c10.6,0,20.5,4.2,27.9,11.7c7.5,7.6,11.6,17.5,11.6,28c0,10.5-4.1,20.4-11.6,28
		C1081.6,835.7,1071.6,839.9,1061.1,839.9z M1061.1,766.1c-9,0-17.4,3.6-23.9,10.1c-6.4,6.5-9.9,15-9.9,24s3.5,17.5,9.9,24
		c6.4,6.5,14.9,10.1,23.9,10.1c9,0,17.5-3.6,24-10.1c6.3-6.4,9.8-14.9,9.8-24c0-9-3.5-17.6-9.8-24
		C1078.6,769.6,1070.1,766.1,1061.1,766.1z"/>
	<path class="st11" d="M1116.7,836.8v-73.5l1.5,0.1l48.8,70.5v-70.5h1.6v73.4h-1.7l-48.4-70v70H1116.7z"/>
	<polygon class="st12" points="1169,840.3 1168,838.8 1165.8,838.8 1120.4,773.2 1120.4,838.8 1114.7,838.8 1114.7,761.2 
		1116.4,761.3 1116.4,760.4 1117.1,761.4 1119.3,761.5 1165,827.5 1165,761.5 1170.5,761.5 1170.5,838.8 1169,838.8 	"/>
	<path class="st11" d="M1232.8,778.9c-0.6-3-1.9-5.7-4-8c-4.5-4.8-11.7-6.8-18.3-6.7c-6.9,0.1-14.8,2.6-19.2,8.4
		c-2.6,3.2-3.6,7.1-3.3,11.2c1.9,25.7,43,5.6,48,29c3.4,15.5-11.3,24.7-25.3,24.7c-10.7,0-23.7-6.1-25-17.9l-0.1-0.7l1.7-0.2
		l0.1,0.7c1.2,11,13.4,16.6,23.4,16.6c12.8,0,26.6-8.3,23.6-22.9c-4.7-21.8-46.1-1.9-48-29.3c-0.4-4.4,0.7-8.7,3.5-12.3
		c10.7-13.8,40.9-12.1,44.5,6.9l0.1,0.8l-1.6,0.3L1232.8,778.9z"/>
	<path class="st12" d="M1210.8,839.6c-12,0-25.6-6.9-26.9-19.7l-0.4-2.7l5.6-0.7l0.4,2.7c1.1,10.3,13.2,14.9,21.4,14.9
		c7.5,0,14.9-3.1,18.8-7.9c2.9-3.5,3.8-7.8,2.8-12.6c-1.9-8.8-10.9-9.7-21.3-10.8c-12-1.2-25.6-2.6-26.8-18.8
		c-0.5-5,0.9-9.7,3.9-13.6c6.2-8,19-11.7,30.6-8.9c9.5,2.3,15.9,8.4,17.4,16.7l0.4,2.8l-5.5,1.1l-0.4-2.9c-0.6-2.7-1.7-5-3.5-7
		c-3.6-3.9-10-6.2-16.8-6.1c-5.8,0.1-13.5,2.1-17.6,7.6c-2.2,2.7-3.1,6-2.8,9.9c0.8,10.7,8.8,12.3,21.9,13.6
		c10.9,1.1,23.3,2.3,26.1,15.2c1.4,6.4,0,12.3-3.8,17.1C1229.2,835.7,1220.2,839.6,1210.8,839.6z"/>
	<path class="st11" d="M1255.3,816.9v-53.4h1.7V817c0,12.7,12.8,19,24,19c11.2,0,24-6.3,24-19.1v-53.4h1.7V817
		c0,13.5-13.6,20.7-25.7,20.7C1268.8,837.7,1255.3,830.5,1255.3,816.9z"/>
	<path class="st12" d="M1280.9,839.7c-13.4,0-27.7-8-27.7-22.7v-55.4h5.7V817c0,11,11.3,17,22,17c10.7,0,22-6,22-17.1v-55.4h5.7V817
		c0,6.9-3.2,12.8-9.2,17C1294.4,837.6,1287.7,839.7,1280.9,839.7z"/>
	<path class="st11" d="M1328.5,835.2h39.4v1.7c-13.7,0-27.4,0-41.1,0v-73.3h1.7V835.2z"/>
	<polygon class="st12" points="1370,838.8 1324.9,838.8 1324.9,761.6 1330.5,761.6 1330.5,833.2 1370,833.2 	"/>
	<path class="st11" d="M1392.3,836.8v-71.7h-25.4v-1.7h52.3v1.7h-25.4v71.7H1392.3z"/>
	<polygon class="st12" points="1395.9,838.8 1390.3,838.8 1390.3,767.1 1364.9,767.1 1364.9,761.5 1421.2,761.5 1421.2,767.1 
		1395.9,767.1 	"/>
	<path class="st11" d="M1469.5,812.2h-37.1l-10,24.6h-1.8l29.5-74.4h1.8l29.5,74.4h-1.8L1469.5,812.2z M1433.1,810.6h35.8l-17.9-46
		L1433.1,810.6z"/>
	<path class="st12" d="M1484.2,838.8h-6l-10.1-24.6h-34.4l-10,24.6h-6.1l31-78.4h1.7l0.5-1.3l0.5,1.3h1.8L1484.2,838.8z M1436,808.6
		h29.9l-15-38.5L1436,808.6z"/>
	<path class="st11" d="M1497.3,836.8v-73.5l1.5,0.1l48.8,70.5v-70.5h1.6v73.4h-1.7l-48.4-70v70H1497.3z"/>
	<polygon class="st12" points="1549.5,840.3 1548.5,838.8 1546.3,838.8 1500.9,773.2 1500.9,838.8 1495.3,838.8 1495.3,761.2 
		1496.9,761.3 1496.9,760.4 1497.6,761.4 1499.8,761.5 1545.5,827.5 1545.5,761.5 1551,761.5 1551,838.8 1549.5,838.8 	"/>
	<path class="st11" d="M1585.1,836.8v-71.7h-25.4v-1.7h52.3v1.7h-25.4v71.7H1585.1z"/>
	<polygon class="st12" points="1586,838.8 1580.4,838.8 1580.4,767.1 1555.1,767.1 1555.1,761.5 1611.4,761.5 1611.4,767.1 
		1586,767.1 	"/>
	<polygon class="st13" points="723.1,715.9 721.4,715.9 721.3,547.7 723.1,548.1 	"/>
	<polygon class="st13" points="724.5,547.5 722.7,545.1 940.5,445.3 939.6,447.2 	"/>
	<polygon class="st13" points="894.5,588.3 892.9,587.8 940.5,445.3 942.6,444.4 	"/>
	<polygon class="st13" points="895.8,588.8 893.1,590.3 974.3,714.6 976,714.1 	"/>
	<polygon class="st13" points="721.5,715.8 721.5,714.1 976,714.1 977.1,715.8 	"/>
	<polygon class="st8" points="1048.3,716.1 1048.4,713.8 1210.2,714.4 1209.5,716.1 	"/>
	<polygon class="st1" points="1376.4,716.1 1376.4,714.4 1608,714.4 1608.3,716.1 	"/>
	<g>
		<g class="st14">
			<g>
				<path class="st12" d="M732.8,870.4h-12.4v-4.5h30v4.5h-12.4v31.7h-5.1V870.4z"/>
				<path class="st12" d="M777.2,893.1H758l-4,9.1h-5.3l16.4-36.2h5.1l16.5,36.2h-5.4L777.2,893.1z M775.4,888.9l-7.8-17.7
					l-7.8,17.7H775.4z"/>
				<path class="st12" d="M813.1,902.1l-10.9-15l-10.7,15h-6l13.6-18.6l-12.8-17.6h5.9l10.1,13.9l10-13.9h5.6l-12.8,17.5l13.7,18.7
					H813.1z"/>
				<path class="st12" d="M862.1,893.1h-19.3l-4,9.1h-5.3l16.4-36.2h5.1l16.5,36.2h-5.4L862.1,893.1z M860.3,888.9l-7.8-17.7
					l-7.8,17.7H860.3z"/>
				<path class="st12" d="M908.1,865.9v36.2h-4.2l-21.7-27v27h-5.2v-36.2h4.2l21.7,27v-27H908.1z"/>
				<path class="st12" d="M918.9,865.9h15.3c11.6,0,19.6,7.3,19.6,18.1c0,10.8-7.9,18.1-19.6,18.1h-15.3V865.9z M933.9,897.6
					c9,0,14.7-5.5,14.7-13.6c0-8.1-5.7-13.6-14.7-13.6h-9.8v27.2H933.9z"/>
				<path class="st12" d="M998.7,893.1h-19.3l-4,9.1h-5.3l16.4-36.2h5.1l16.5,36.2h-5.4L998.7,893.1z M996.9,888.9l-7.8-17.7
					l-7.8,17.7H996.9z"/>
				<path class="st12" d="M1010,884c0-10.7,8.2-18.5,19.2-18.5c5.6,0,10.5,1.9,13.8,5.6l-3.4,3.3c-2.8-2.9-6.2-4.3-10.2-4.3
					c-8.2,0-14.2,5.9-14.2,13.9s6.1,13.9,14.2,13.9c4,0,7.4-1.4,10.2-4.3l3.4,3.3c-3.3,3.7-8.2,5.7-13.8,5.7
					C1018.2,902.6,1010,894.7,1010,884z"/>
				<path class="st12" d="M1046.6,884c0-10.7,8.2-18.5,19.2-18.5c5.6,0,10.5,1.9,13.8,5.6l-3.4,3.3c-2.8-2.9-6.2-4.3-10.2-4.3
					c-8.2,0-14.2,5.9-14.2,13.9s6.1,13.9,14.2,13.9c4,0,7.4-1.4,10.2-4.3l3.4,3.3c-3.3,3.7-8.2,5.7-13.8,5.7
					C1054.8,902.6,1046.6,894.7,1046.6,884z"/>
				<path class="st12" d="M1083.3,884c0-10.6,8.2-18.5,19.3-18.5c11,0,19.2,7.9,19.2,18.5s-8.2,18.5-19.2,18.5
					C1091.5,902.6,1083.3,894.6,1083.3,884z M1116.6,884c0-8-6-13.9-14-13.9c-8.1,0-14.1,5.9-14.1,13.9s6,13.9,14.1,13.9
					C1110.6,897.9,1116.6,892,1116.6,884z"/>
				<path class="st12" d="M1129.4,886.5v-20.6h5.2v20.4c0,8,3.7,11.6,10.2,11.6s10.2-3.6,10.2-11.6v-20.4h5v20.6
					c0,10.5-5.7,16-15.3,16C1135.2,902.6,1129.4,897,1129.4,886.5z"/>
				<path class="st12" d="M1201.8,865.9v36.2h-4.2l-21.7-27v27h-5.2v-36.2h4.2l21.7,27v-27H1201.8z"/>
				<path class="st12" d="M1219.8,870.4h-12.4v-4.5h30v4.5h-12.4v31.7h-5.1V870.4z"/>
				<path class="st12" d="M1243,865.9h5.2v36.2h-5.2V865.9z"/>
				<path class="st12" d="M1290.2,865.9v36.2h-4.2l-21.7-27v27h-5.2v-36.2h4.2l21.7,27v-27H1290.2z"/>
				<path class="st12" d="M1326.2,883.8h5v14.1c-3.6,3.1-8.6,4.6-13.7,4.6c-11.1,0-19.3-7.8-19.3-18.5c0-10.7,8.2-18.5,19.4-18.5
					c5.7,0,10.6,1.9,13.9,5.6l-3.2,3.2c-3-2.9-6.4-4.2-10.5-4.2c-8.4,0-14.4,5.8-14.4,13.9c0,8,6.1,13.9,14.4,13.9
					c3.1,0,5.9-0.7,8.5-2.3V883.8z"/>
				<path class="st12" d="M1351.6,898l1.9-4c2.7,2.4,7.3,4.2,12,4.2c6.3,0,9-2.4,9-5.6c0-8.8-21.9-3.3-21.9-16.7
					c0-5.6,4.3-10.4,13.9-10.4c4.2,0,8.6,1.1,11.6,3.2l-1.7,4.1c-3.2-2-6.7-3-9.9-3c-6.2,0-8.8,2.6-8.8,5.7
					c0,8.8,21.9,3.3,21.9,16.6c0,5.5-4.4,10.3-14,10.3C1359.9,902.6,1354.5,900.7,1351.6,898z"/>
				<path class="st12" d="M1413.3,897.6v4.5h-26.3v-36.2h25.6v4.5h-20.4v11.1h18.2v4.4h-18.2v11.7H1413.3z"/>
				<path class="st12" d="M1445.9,902.1l-7.8-11.1c-0.7,0.1-1.5,0.1-2.3,0.1h-9v11h-5.2v-36.2h14.1c9.4,0,15.1,4.8,15.1,12.6
					c0,5.6-2.9,9.6-8,11.4l8.6,12.2H1445.9z M1445.8,878.5c0-5.2-3.5-8.1-10.1-8.1h-8.8v16.3h8.8
					C1442.3,886.7,1445.8,883.7,1445.8,878.5z"/>
				<path class="st12" d="M1490.8,865.9l-15.9,36.2h-5.1l-15.9-36.2h5.6l13,29.8l13.1-29.8H1490.8z"/>
				<path class="st12" d="M1495.4,865.9h5.2v36.2h-5.2V865.9z"/>
				<path class="st12" d="M1508.5,884c0-10.7,8.2-18.5,19.2-18.5c5.6,0,10.5,1.9,13.8,5.6l-3.4,3.3c-2.8-2.9-6.2-4.3-10.2-4.3
					c-8.2,0-14.2,5.9-14.2,13.9s6.1,13.9,14.2,13.9c4,0,7.4-1.4,10.2-4.3l3.4,3.3c-3.3,3.7-8.2,5.7-13.8,5.7
					C1516.7,902.6,1508.5,894.7,1508.5,884z"/>
				<path class="st12" d="M1575.1,897.6v4.5h-26.3v-36.2h25.6v4.5H1554v11.1h18.2v4.4H1554v11.7H1575.1z"/>
				<path class="st12" d="M1580.2,898l1.9-4c2.7,2.4,7.3,4.2,12,4.2c6.3,0,9-2.4,9-5.6c0-8.8-21.9-3.3-21.9-16.7
					c0-5.6,4.3-10.4,13.9-10.4c4.2,0,8.6,1.1,11.6,3.2l-1.7,4.1c-3.2-2-6.7-3-9.9-3c-6.2,0-8.8,2.6-8.8,5.7
					c0,8.8,21.9,3.3,21.9,16.6c0,5.5-4.5,10.3-14,10.3C1588.5,902.6,1583.1,900.7,1580.2,898z"/>
			</g>
		</g>
		<g>
			<g>
				<path class="st12" d="M732.8,868.5h-12.4V864h30v4.5h-12.4v31.7h-5.1V868.5z"/>
				<path class="st12" d="M777.2,891.2H758l-4,9.1h-5.3l16.4-36.2h5.1l16.5,36.2h-5.4L777.2,891.2z M775.4,887.1l-7.8-17.7
					l-7.8,17.7H775.4z"/>
				<path class="st12" d="M813.1,900.3l-10.9-15l-10.7,15h-6l13.6-18.6L786.4,864h5.9l10.1,13.9l10-13.9h5.6l-12.8,17.5l13.7,18.7
					H813.1z"/>
				<path class="st12" d="M862.1,891.2h-19.3l-4,9.1h-5.3L850,864h5.1l16.5,36.2h-5.4L862.1,891.2z M860.3,887.1l-7.8-17.7
					l-7.8,17.7H860.3z"/>
				<path class="st12" d="M908.1,864v36.2h-4.2l-21.7-27v27h-5.2V864h4.2l21.7,27v-27H908.1z"/>
				<path class="st12" d="M918.9,864h15.3c11.6,0,19.6,7.3,19.6,18.1c0,10.8-7.9,18.1-19.6,18.1h-15.3V864z M933.9,895.8
					c9,0,14.7-5.5,14.7-13.6c0-8.1-5.7-13.6-14.7-13.6h-9.8v27.2H933.9z"/>
				<path class="st12" d="M998.7,891.2h-19.3l-4,9.1h-5.3l16.4-36.2h5.1l16.5,36.2h-5.4L998.7,891.2z M996.9,887.1l-7.8-17.7
					l-7.8,17.7H996.9z"/>
				<path class="st12" d="M1010,882.1c0-10.7,8.2-18.5,19.2-18.5c5.6,0,10.5,1.9,13.8,5.6l-3.4,3.3c-2.8-2.9-6.2-4.3-10.2-4.3
					c-8.2,0-14.2,5.9-14.2,13.9c0,8,6.1,13.9,14.2,13.9c4,0,7.4-1.4,10.2-4.3l3.4,3.3c-3.3,3.7-8.2,5.7-13.8,5.7
					C1018.2,900.7,1010,892.9,1010,882.1z"/>
				<path class="st12" d="M1046.6,882.1c0-10.7,8.2-18.5,19.2-18.5c5.6,0,10.5,1.9,13.8,5.6l-3.4,3.3c-2.8-2.9-6.2-4.3-10.2-4.3
					c-8.2,0-14.2,5.9-14.2,13.9c0,8,6.1,13.9,14.2,13.9c4,0,7.4-1.4,10.2-4.3l3.4,3.3c-3.3,3.7-8.2,5.7-13.8,5.7
					C1054.8,900.7,1046.6,892.9,1046.6,882.1z"/>
				<path class="st12" d="M1083.3,882.1c0-10.6,8.2-18.5,19.3-18.5c11,0,19.2,7.9,19.2,18.5c0,10.7-8.2,18.5-19.2,18.5
					C1091.5,900.7,1083.3,892.8,1083.3,882.1z M1116.6,882.1c0-8-6-13.9-14-13.9c-8.1,0-14.1,5.9-14.1,13.9c0,8,6,13.9,14.1,13.9
					C1110.6,896.1,1116.6,890.2,1116.6,882.1z"/>
				<path class="st12" d="M1129.4,884.6V864h5.2v20.4c0,8,3.7,11.6,10.2,11.6s10.2-3.6,10.2-11.6V864h5v20.6c0,10.5-5.7,16-15.3,16
					C1135.2,900.7,1129.4,895.1,1129.4,884.6z"/>
				<path class="st12" d="M1201.8,864v36.2h-4.2l-21.7-27v27h-5.2V864h4.2l21.7,27v-27H1201.8z"/>
				<path class="st12" d="M1219.8,868.5h-12.4V864h30v4.5h-12.4v31.7h-5.1V868.5z"/>
				<path class="st12" d="M1243,864h5.2v36.2h-5.2V864z"/>
				<path class="st12" d="M1290.2,864v36.2h-4.2l-21.7-27v27h-5.2V864h4.2l21.7,27v-27H1290.2z"/>
				<path class="st12" d="M1326.2,881.9h5v14.1c-3.6,3.1-8.6,4.6-13.7,4.6c-11.1,0-19.3-7.8-19.3-18.5c0-10.7,8.2-18.5,19.4-18.5
					c5.7,0,10.6,1.9,13.9,5.6l-3.2,3.2c-3-2.9-6.4-4.2-10.5-4.2c-8.4,0-14.4,5.8-14.4,13.9c0,8,6.1,13.9,14.4,13.9
					c3.1,0,5.9-0.7,8.5-2.3V881.9z"/>
				<path class="st12" d="M1351.6,896.1l1.9-4c2.7,2.4,7.3,4.2,12,4.2c6.3,0,9-2.4,9-5.6c0-8.8-21.9-3.3-21.9-16.7
					c0-5.6,4.3-10.4,13.9-10.4c4.2,0,8.6,1.1,11.6,3.2l-1.7,4.1c-3.2-2-6.7-3-9.9-3c-6.2,0-8.8,2.6-8.8,5.7
					c0,8.8,21.9,3.3,21.9,16.6c0,5.5-4.4,10.3-14,10.3C1359.9,900.7,1354.5,898.8,1351.6,896.1z"/>
				<path class="st12" d="M1413.3,895.8v4.5h-26.3V864h25.6v4.5h-20.4v11.1h18.2v4.4h-18.2v11.7H1413.3z"/>
				<path class="st12" d="M1445.9,900.3l-7.8-11.1c-0.7,0.1-1.5,0.1-2.3,0.1h-9v11h-5.2V864h14.1c9.4,0,15.1,4.8,15.1,12.6
					c0,5.6-2.9,9.6-8,11.4l8.6,12.2H1445.9z M1445.8,876.7c0-5.2-3.5-8.1-10.1-8.1h-8.8v16.3h8.8
					C1442.3,884.8,1445.8,881.8,1445.8,876.7z"/>
				<path class="st12" d="M1490.8,864l-15.9,36.2h-5.1l-15.9-36.2h5.6l13,29.8l13.1-29.8H1490.8z"/>
				<path class="st12" d="M1495.4,864h5.2v36.2h-5.2V864z"/>
				<path class="st12" d="M1508.5,882.1c0-10.7,8.2-18.5,19.2-18.5c5.6,0,10.5,1.9,13.8,5.6l-3.4,3.3c-2.8-2.9-6.2-4.3-10.2-4.3
					c-8.2,0-14.2,5.9-14.2,13.9c0,8,6.1,13.9,14.2,13.9c4,0,7.4-1.4,10.2-4.3l3.4,3.3c-3.3,3.7-8.2,5.7-13.8,5.7
					C1516.7,900.7,1508.5,892.9,1508.5,882.1z"/>
				<path class="st12" d="M1575.1,895.8v4.5h-26.3V864h25.6v4.5H1554v11.1h18.2v4.4H1554v11.7H1575.1z"/>
				<path class="st12" d="M1580.2,896.1l1.9-4c2.7,2.4,7.3,4.2,12,4.2c6.3,0,9-2.4,9-5.6c0-8.8-21.9-3.3-21.9-16.7
					c0-5.6,4.3-10.4,13.9-10.4c4.2,0,8.6,1.1,11.6,3.2l-1.7,4.1c-3.2-2-6.7-3-9.9-3c-6.2,0-8.8,2.6-8.8,5.7
					c0,8.8,21.9,3.3,21.9,16.6c0,5.5-4.5,10.3-14,10.3C1588.5,900.7,1583.1,898.8,1580.2,896.1z"/>
			</g>
		</g>
	</g>
</g>
</svg>
