<?xml version="1.0" encoding="utf-8"?>
<!-- Generator: Adobe Illustrator 24.0.1, SVG Export Plug-In . SVG Version: 6.00 Build 0)  -->
<svg version="1.1" id="Layer_1" xmlns="http://www.w3.org/2000/svg" xmlns:xlink="http://www.w3.org/1999/xlink" x="0px" y="0px"
	 viewBox="0 0 2500 928" style="enable-background:new 0 0 2500 928;" xml:space="preserve">
<style type="text/css">
	.st0{fill:#FFFFFF;}
	.st1{fill:#231F20;}
</style>
<g>
	<rect x="1149.3" y="88.8" class="st0" width="1325.9" height="751.8"/>
	<g>
		<path class="st1" d="M1525,611.7c-21.3,0-40.7-4.2-58-12.5c-17.4-8.3-32.3-19.4-44.7-33.2c-12.4-13.8-22.1-29.6-28.9-47.4
			c-6.8-17.8-10.3-35.9-10.3-54.5c0-19.4,3.6-38,10.9-55.8c7.2-17.8,17.2-33.5,29.9-47.2c12.7-13.7,27.8-24.5,45.3-32.6
			c17.5-8.1,36.5-12.1,57-12.1c21,0,40.3,4.3,57.6,12.9c17.4,8.6,32.2,19.9,44.5,33.8c12.3,13.9,21.9,29.8,28.7,47.6
			c6.8,17.8,10.3,35.8,10.3,54.1c0,19.4-3.6,37.9-10.7,55.6c-7.1,17.6-17,33.2-29.5,46.8c-12.6,13.5-27.6,24.3-45.1,32.4
			C1564.5,607.7,1545.5,611.7,1525,611.7z M1440.5,464c0,12.6,1.9,24.7,5.7,36.5c3.8,11.8,9.4,22.1,16.6,31.2
			c7.2,9,16.1,16.3,26.7,21.7c10.5,5.5,22.5,8.2,35.9,8.2c13.7,0,25.8-2.8,36.3-8.4c10.5-5.6,19.4-13.1,26.7-22.4
			c7.2-9.3,12.7-19.7,16.4-31.4c3.7-11.6,5.5-23.4,5.5-35.5c0-12.6-2-24.7-5.9-36.5c-4-11.8-9.6-22.1-16.8-31.2
			c-7.2-9-16.1-16.2-26.7-21.5c-10.5-5.3-22.3-8-35.5-8c-13.7,0-25.8,2.8-36.5,8.4c-10.7,5.6-19.5,13-26.7,22.1
			c-7.1,9.2-12.5,19.6-16.2,31.2C1442.3,440.2,1440.5,452,1440.5,464z"/>
		<path class="st1" d="M1767.3,423v186.6h-56.6V318.5h43.9l151.7,191.1V318.9h56.6v290.8H1917L1767.3,423z"/>
		<path class="st1" d="M2225.8,560v49.6h-202.2V318.5h198.5v49.6h-141.9v70.1h122.6v45.9h-122.6V560H2225.8z"/>
	</g>
	<g>
		<path class="st1" d="M0,50v829.4h2500V50H0z M2429.9,809.3H1202.8V120.1h1227.1V809.3z"/>
	</g>
	<g>
		<g>
			<path class="st0" d="M376.5,392.6c1.2-1.6,2-2.4,2.6-2.4c0.5,0,2.5,0.2,5.8,0.6c3.3,0.5,6.3,0.8,8.8,1l17.6,0.3
				c2.3-36.4,6.2-64.6,11.8-84.8c5.6-20.2,12.1-30.9,19.7-32.2c3.6-0.3,10.3,3.8,19.9,12.2c9.6,8.4,14.9,16.9,16,25.6
				c0.1,0.7-0.5,4.1-1.7,10c-1.2,5.9-2.9,15.3-5.2,28.1c-2.3,12.8-4.2,26.2-5.6,40.2l8.2-0.6c10.9-0.8,22.3-2.3,34.2-4.3
				c8.7-1,13.1-0.7,13.3,1.2c0.4,0.3,0.5,1.2,0.2,2.7c-0.6,6.6-3.1,14.6-7.5,23.9c-4.4,9.3-8.2,14.3-11.5,14.9
				c-5,1.1-18.3,1.8-39.9,2c-0.6,6.6-1.1,16.9-1.4,30.8c-2.8,96,4.9,143.3,23.1,141.9c6.2-0.5,11.8-10.2,16.9-29.3
				c5.1-19,8.1-41,9.1-66c0.5-7.7,3.4-12.2,8.8-13.3c6.1-1.6,10,1.4,11.7,9c0.5,2.1,0.7,4.9,0.6,8.2
				c-6.8,90.8-25.9,137.5-57.1,139.9c-41.1,3.2-62.7-42.5-65-137c-1-31.4-1-60.1-0.1-86.1c-16.4-3.8-27-13.3-31.8-28.2
				C375.8,396.8,375.3,394.1,376.5,392.6z"/>
			<path class="st0" d="M565.1,473.9c2.2-22.8,2.5-36.1,0.7-39.8c-1.8-3.7-8.6-5.1-20.6-4.2l-3.3,0.3l-5.5,0.4
				c-0.5,22.3-2,49.5-4.6,81.5c-0.5,3-1.1,9.3-1.8,19.1c-0.7,9.7-1.2,15.4-1.4,16.8c-1.4,10-5.4,14.9-12,14.6
				c-7-0.9-9.9-7.6-8.7-20.2c1.2-7.8,2.2-19.2,2.8-34.2c1-24.2,1.7-50.6,2.1-79.1c-20.5-5.3-29.5-22-26.9-50
				c1-10.3,4.7-20.1,11.1-29.4c6.4-9.3,12.9-14.2,19.4-14.7c6.2-0.5,10.6,1.6,13.4,6.1c2.7,4.5,4.6,13,5.5,25.3
				c0.2,2.2,0.3,4.9,0.4,8.2c0.1,3.3,0.2,5.5,0.5,6.5c0.3,1.1,0.5,2.6,0.6,4.6c0.2,2,0.7,3.1,1.6,3.4c0.9,0.3,1.9,0.9,2.9,1.7
				c1,0.8,2.5,1.2,4.5,1c2-0.2,4.1-0.2,6.3-0.2c2.2,0,5.3-0.1,9.3-0.4c25.8-2,42.4,0,49.8,6c4.1,5.9,6,16.4,5.7,31.4
				c-0.3,15-3,44.1-8,87.3c-3.2,29.1-4.3,52-3.2,68.5c1.1,16.5,4.4,25,9.9,25.3c5.8-0.5,11.4-12.6,16.6-36.4
				c5.3-23.8,8.5-48.9,9.8-75.3c0.5-7.7,3.5-12.2,9.1-13.6c5.6-1.3,9.3,1.4,11.3,8.2c0.9,2.5,1.2,5.6,0.7,9.3
				c-6.7,101.8-25.9,153.9-57.5,156.4c-36.7,2.9-51.6-43-44.7-137.5C561.9,507.9,563.3,492.3,565.1,473.9z"/>
			<path class="st0" d="M754,399.4c7.6-0.6,12.5,0.1,14.7,2.1c2.2,2,3.4,5.2,3.8,9.6c1.6,20,1.2,51.1-1,93.3
				c-1.6,26.8-1.9,46.3-0.9,58.5c0.9,12.2,4.1,18.1,9.6,17.6c6.2-0.5,11.8-10.2,16.9-29.3c5.1-19,8.1-41,9.1-66
				c0.5-7.7,3.4-12.1,8.8-13.3c6.1-1.6,10,1.4,11.7,9c0.5,2.1,0.7,4.9,0.6,8.2c-1,15.8-2.5,30.7-4.7,44.8
				c-2.2,14.1-5.4,28.6-9.5,43.5c-4.1,14.9-9.9,27.1-17.2,36.4c-7.3,9.3-15.9,14.4-25.7,15.2c-13.4,1-23.5-8.6-30.2-28.9
				c-10.5,34.8-25.1,53-44,54.4c-10.2,0.8-19.7-3.6-28.4-13.1c-8.8-9.6-16.1-25.8-21.9-48.8c-5.8-22.9-7.3-53.5-4.4-91.8
				c2.5-33.5,9.9-63.6,22-90.3c12.2-26.7,27.4-40.8,45.5-42.2c20-1.6,32.5,7,37.6,25.6C747.9,397.8,750.4,399.7,754,399.4z
				 M698.9,437.9c-5.7,15.6-9.5,34.8-11.4,57.7c-2.9,28.4-2.9,53.4,0.1,75.1c3,21.7,8.4,32.2,16.4,31.6c7.6-0.6,14-18.2,19.2-52.8
				c5.2-34.6,7.6-74.5,7.4-119.9c-2.7-11.1-7.3-16.4-13.9-15.9C710.6,414.3,704.6,422.3,698.9,437.9z"/>
		</g>
		<g>
			<path class="st0" d="M214.8,449.3c-16.8-22.6-29.9-43.2-39.3-61.7c-9.4-18.5-16.2-35.8-20.5-52.1c-4.3-16.2-5.8-30.4-4.6-42.6
				c1.2-12.2,4.7-23,10.4-32.5c5.7-9.5,13.1-17.3,22.3-23.4c9.2-6.1,20-10.7,32.3-13.8c30-7.6,57.2-8.6,81.6-2.9
				c24.4,5.7,43.4,16,57.2,30.9c13.7,14.9,23.6,32.1,29.7,51.4c6,19.3,6.7,39.7,1.9,61c-4.8,21.3-14.2,40.4-28.4,57.1
				c-16,18.3-27,24.1-32.8,17.3c-3.8-4.7-3-10.3,2.5-17c11.2-13.7,16.8-31.5,16.9-53.4c0.1-21.8-4.3-42.4-13.1-61.8
				c-8.9-19.4-23.3-34.7-43.2-46c-20-11.3-42.3-13.8-67.1-7.6c-9.2,2.3-15.8,7.4-19.8,15.2c-4,7.8-5.2,18.2-3.4,31.3
				c1.8,13.1,6.5,28,14.1,44.7c7.6,16.7,19.3,36,35,58c15.7,22,34.6,44.6,56.7,68c33.3,35.2,60.4,72.2,81.2,111.2
				c20.8,38.9,31,74.8,30.6,107.6c-0.3,32.8-14.2,55.3-41.6,67.5C338.4,771,304,767.1,270,744.2c-34-23-55.2-50.9-63.5-83.8
				c-5.5-21.6-6.1-40.3-1.8-56.2c4.2-15.9,10.6-26.6,18.9-32.1c8.4-5.5,16.8-7.7,25.1-6.6c8.4,1.1,13.4,3.7,15.2,7.7
				c0.1,0.4-0.3,1.8-1.2,4.2c-0.9,2.5-1.9,6.1-3.2,10.9c-1.2,4.8-2.3,10.4-3.1,16.6c-0.9,6.2-1,14.1-0.3,23.5
				c0.7,9.4,2.3,19.1,4.8,29c6.7,26.5,19.5,46.1,38.3,58.8c18.8,12.7,37.2,15.7,55,8.9c16.8-6.5,25.7-17.7,26.8-33.6
				c1.1-15.9-7.1-38.2-24.6-67.1c-17.5-28.9-44.8-63.4-82.1-103.6C251.5,495.8,231.6,472,214.8,449.3z"/>
		</g>
		<g>
			<path class="st0" d="M997,168.4c3.8-1.4,6.8-0.5,9,2.7c2.2,3.2,3.8,8.1,4.9,15c8.5,52.2-44.2,78.5-158.3,79.1
				c0.3,13.3,0.7,37.7,1.2,73.2c0.5,35.6,1,64.4,1.7,86.4c2.5,150.7,10.7,255,24.6,312.9c2.7,9.5-3.5,13.5-18.6,11.9
				c-15.9-2.2-29.8-8.2-41.7-18.1c-4.8-4.4-7.7-8.5-8.7-12.4c-3.1-10.2-5.8-112.1-7.9-305.7c-0.3-24.7-1.1-53.8-2.1-87.5
				c-1.1-33.6-1.7-54.5-1.9-62.6c-20.4-0.7-39.1,0-55.9,2.2c-16.8,2.2-30.8,5.6-41.8,10.2c-11.1,4.6-20.8,10-29.2,16.1
				c-8.4,6.2-14.8,12.9-19.1,20.3c-4.3,7.4-7.7,14.6-10,21.6s-3.6,14-3.8,20.8c-0.2,6.9,0.2,12.9,1,18.1s2.1,9.7,3.9,13.5
				c1.1,2.4,1.6,5.3,1.4,8.6c-0.2,3.4-0.9,5.7-2.2,7c-3.5,3.5-7.4,4.7-11.9,3.6c-4.4-1.1-8.7-4.1-12.8-9
				c-3.7-4.6-7.6-11.1-11.8-19.7c-4.2-8.6-8-19.2-11.6-31.9c-3.6-12.7-4.8-25.4-3.8-38.2c1.1-12.7,4.8-25.5,11.2-38.4
				c6.4-12.9,17.4-23.7,33.2-32.6c15.7-8.9,36.5-16,62.4-21.3c25.9-5.3,59-6.7,99.3-4.1l0.4-38.3c-0.1-7.4,6.6-8.3,20.1-2.7
				c14.6,5.7,24.4,13.6,29.3,23.5c0.6,1.4,1,2.6,1.2,3.7c1.1,6.5,1.8,12.3,2.3,17.4c35.5,2.3,64.4,2.2,86.7-0.3
				c22.3-2.5,37.6-6.5,46-12c8.3-5.4,11.5-12.2,9.4-20.4C991.2,174.5,992.5,170.2,997,168.4z"/>
		</g>
	</g>
</g>
</svg>
