<?xml version="1.0" encoding="utf-8"?>
<!-- Generator: Adobe Illustrator 24.0.1, SVG Export Plug-In . SVG Version: 6.00 Build 0)  -->
<svg version="1.1" id="Layer_1" xmlns="http://www.w3.org/2000/svg" xmlns:xlink="http://www.w3.org/1999/xlink" x="0px" y="0px"
	 viewBox="0 0 228.7 39.1" style="enable-background:new 0 0 228.7 39.1;" xml:space="preserve">
<style type="text/css">
	.st0{fill:#FFFFFF;}
</style>
<g>
	<path class="st0" d="M26.8,30.4h-3.2c-0.4,0-0.7-0.1-0.9-0.3c-0.2-0.2-0.4-0.4-0.5-0.7l-1.7-4.6h-9.3l-1.7,4.6
		c-0.1,0.2-0.2,0.5-0.5,0.7c-0.2,0.2-0.5,0.3-0.9,0.3H5L13.8,8H18L26.8,30.4z M12.3,22h7.1l-2.7-7.4c-0.1-0.3-0.3-0.7-0.4-1.2
		c-0.1-0.4-0.3-0.9-0.4-1.5c-0.1,0.5-0.3,1-0.4,1.5c-0.1,0.5-0.3,0.9-0.4,1.2L12.3,22z"/>
	<path class="st0" d="M42.7,21.7v8.7h-4.2V8h6.8c1.5,0,2.8,0.2,3.9,0.5c1.1,0.3,2,0.8,2.7,1.3s1.2,1.2,1.5,2
		c0.3,0.8,0.5,1.7,0.5,2.6c0,0.8-0.1,1.5-0.3,2.1c-0.2,0.7-0.5,1.3-1,1.8c-0.4,0.5-0.9,1-1.5,1.4c-0.6,0.4-1.3,0.7-2.1,1
		c0.5,0.3,1,0.7,1.4,1.3l5.6,8.3h-3.7c-0.4,0-0.7-0.1-0.9-0.2s-0.5-0.4-0.6-0.6L46,22.4c-0.2-0.3-0.4-0.5-0.6-0.6
		c-0.2-0.1-0.5-0.2-0.9-0.2H42.7z M42.7,18.7h2.6c0.8,0,1.5-0.1,2.1-0.3s1.1-0.5,1.4-0.8c0.4-0.3,0.7-0.8,0.8-1.2
		c0.2-0.5,0.3-1,0.3-1.6c0-1.1-0.4-2-1.1-2.6c-0.7-0.6-1.9-0.9-3.4-0.9h-2.7V18.7z"/>
	<path class="st0" d="M87.6,30.4h-3.2c-0.4,0-0.7-0.1-0.9-0.3c-0.2-0.2-0.4-0.4-0.5-0.7l-1.7-4.6h-9.3l-1.7,4.6
		c-0.1,0.2-0.2,0.5-0.5,0.7c-0.2,0.2-0.5,0.3-0.9,0.3h-3.2L74.6,8h4.3L87.6,30.4z M73.1,22h7.1l-2.7-7.4c-0.1-0.3-0.3-0.7-0.4-1.2
		c-0.1-0.4-0.3-0.9-0.4-1.5c-0.1,0.5-0.3,1-0.4,1.5c-0.1,0.5-0.3,0.9-0.4,1.2L73.1,22z"/>
	<path class="st0" d="M101.9,8c0.1,0,0.2,0,0.3,0.1s0.2,0.1,0.3,0.2c0.1,0.1,0.2,0.2,0.3,0.3l11.7,15c0-0.4-0.1-0.7-0.1-1.1
		s0-0.7,0-1V8h3.7v22.4h-2.2c-0.3,0-0.6-0.1-0.8-0.2c-0.2-0.1-0.4-0.3-0.6-0.6l-11.7-14.9c0,0.3,0.1,0.7,0.1,1c0,0.3,0,0.6,0,0.9
		v13.7h-3.7V8h2.2C101.6,8,101.7,8,101.9,8z"/>
	<path class="st0" d="M146,8v3.3h-9.9v6.2h7.8v3.2h-7.8v6.3h9.9v3.3h-14.1V8H146z"/>
	<path class="st0" d="M170.9,12.1c-0.1,0.2-0.2,0.4-0.4,0.5c-0.1,0.1-0.3,0.1-0.5,0.1s-0.4-0.1-0.7-0.2c-0.3-0.2-0.6-0.3-0.9-0.5
		c-0.4-0.2-0.8-0.4-1.2-0.5s-1-0.2-1.7-0.2c-0.6,0-1.1,0.1-1.5,0.2c-0.4,0.1-0.8,0.3-1.1,0.6s-0.5,0.5-0.7,0.9
		c-0.1,0.3-0.2,0.7-0.2,1.1c0,0.5,0.1,1,0.4,1.3s0.7,0.6,1.2,0.9s1,0.5,1.7,0.7s1.3,0.4,1.9,0.6c0.6,0.2,1.3,0.5,1.9,0.8
		s1.2,0.7,1.7,1.1c0.5,0.4,0.9,1,1.2,1.6c0.3,0.6,0.4,1.4,0.4,2.4c0,1-0.2,2-0.5,2.8c-0.3,0.9-0.9,1.7-1.5,2.3
		c-0.7,0.7-1.5,1.2-2.4,1.5c-1,0.4-2.1,0.6-3.3,0.6c-0.7,0-1.4-0.1-2.1-0.2c-0.7-0.1-1.4-0.3-2-0.6c-0.6-0.3-1.2-0.6-1.8-0.9
		s-1-0.8-1.5-1.2l1.2-2c0.1-0.1,0.2-0.3,0.4-0.4c0.2-0.1,0.3-0.1,0.5-0.1c0.3,0,0.5,0.1,0.8,0.3c0.3,0.2,0.7,0.4,1.1,0.7
		c0.4,0.3,0.9,0.5,1.4,0.7c0.6,0.2,1.2,0.3,2,0.3c1.2,0,2.1-0.3,2.8-0.8c0.7-0.6,1-1.4,1-2.4c0-0.6-0.1-1.1-0.4-1.4
		c-0.3-0.4-0.7-0.7-1.2-0.9c-0.5-0.3-1-0.5-1.7-0.6s-1.2-0.4-1.9-0.6c-0.6-0.2-1.3-0.5-1.9-0.7s-1.2-0.7-1.7-1.1
		c-0.5-0.5-0.9-1-1.2-1.7c-0.3-0.7-0.4-1.6-0.4-2.6c0-0.8,0.2-1.6,0.5-2.4c0.3-0.8,0.8-1.5,1.4-2.1c0.6-0.6,1.4-1.1,2.3-1.4
		s1.9-0.5,3.1-0.5c1.3,0,2.5,0.2,3.7,0.6c1.1,0.4,2.1,1,2.8,1.7L170.9,12.1z"/>
	<path class="st0" d="M189.5,30.4h-4.2V8h4.2V30.4z"/>
	<path class="st0" d="M223.5,30.4h-3.2c-0.4,0-0.7-0.1-0.9-0.3c-0.2-0.2-0.4-0.4-0.5-0.7l-1.7-4.6h-9.3l-1.7,4.6
		c-0.1,0.2-0.2,0.5-0.5,0.7s-0.5,0.3-0.9,0.3h-3.2L210.4,8h4.3L223.5,30.4z M209,22h7.1l-2.7-7.4c-0.1-0.3-0.3-0.7-0.4-1.2
		c-0.1-0.4-0.3-0.9-0.4-1.5c-0.1,0.5-0.3,1-0.4,1.5c-0.1,0.5-0.3,0.9-0.4,1.2L209,22z"/>
</g>
</svg>
